# xmcd CD database file
#
# Track frame offsets:
#	150
#	64593
#	107083
#	155530
#
# Disc length: 2840 seconds
#
# Revision: 3
# Processed by: cddbd v1.5.2PL0 Copyright (c) Steve Scherf et al.
# Submitted via: CDex 1.51
#
DISCID=2b0b1604
DTITLE=George Benson - Love for Sale
DYEAR=1973
DGENRE=Jazz
TTITLE0=Love for Sale
TTITLE1=I'm Afraid the Masquerade
TTITLE2=Ther Will Never Be Another You
TTITLE3=All Blues
EXTD=YEAR: 1973
EXTT0=
EXTT1=
EXTT2=
EXTT3=
PLAYORDER=
